<svg width="107" height="107" viewBox="0 0 107 107" fill="none" xmlns="http://www.w3.org/2000/svg">
<path fill-rule="evenodd" clip-rule="evenodd" d="M21.9935 106.721C9.55732 104.886 0 94.1559 0 81.2129V25.787C0 11.554 11.554 0 25.787 0H58.632L21.0972 37.5348C11.7983 46.8337 11.9699 59.7241 20.6147 68.3689L27.9714 75.7257C28.9829 76.7371 30.6686 76.7129 31.7124 75.6671L40.9164 66.4631C41.9602 65.4193 41.9844 63.7356 40.9729 62.7242L36.2851 58.0363C33.6162 55.3674 33.3901 51.9151 36.3315 48.9737L85.0246 0.280622C97.4528 2.12385 107 12.8501 107 25.787V81.2129C107 95.4459 95.446 107 81.213 107H48.3902L85.925 69.4651C95.2239 60.1662 95.0523 47.2758 86.4075 38.631L79.0488 31.2722C78.0373 30.2628 76.3536 30.287 75.3098 31.3308L66.1038 40.5368C65.06 41.5806 65.0378 43.2623 66.0473 44.2737L70.7371 48.9636C73.406 51.6325 73.6322 55.0827 70.6907 58.0242L21.9935 106.721Z" fill="#86EAD4"/>
</svg>
