<svg width="107" height="107" viewBox="0 0 107 107" fill="none" xmlns="http://www.w3.org/2000/svg">
<path d="M25.7871 3H51.3896L18.9756 35.4131C8.53368 45.855 8.64854 60.6455 18.4932 70.4902L25.8496 77.8467C28.0915 80.0886 31.6783 79.9461 33.834 77.7881L43.0381 68.584C45.193 66.4287 45.3366 62.8446 43.0947 60.6025L38.4062 55.915C37.4961 55.0048 37.2131 54.1841 37.2041 53.5645C37.1955 52.9663 37.4352 52.1127 38.4531 51.0947L86.0352 3.51172C96.2983 5.72456 104 14.868 104 25.7871V81.2129C104 93.789 93.7891 104 81.2129 104H55.6328L88.0459 71.5869C98.4877 61.1451 98.3737 46.3545 88.5293 36.5098L81.1699 29.1514L81.168 29.1484C78.926 26.9112 75.3435 27.0542 73.1885 29.209L63.9824 38.415C61.8245 40.573 61.6894 44.1535 63.9238 46.3926L63.9258 46.3955L68.6162 51.085C69.5266 51.9955 69.8094 52.8158 69.8184 53.4346C69.8269 54.0318 69.5876 54.8851 68.5693 55.9033L20.9805 103.49C10.7102 101.283 3 92.1371 3 81.2129V25.7871C3 13.211 13.2109 3 25.7871 3Z" stroke="#86EAD4" stroke-width="6"/>
</svg>
